<?xml version="1.0" standalone="no"?>
<!DOCTYPE svg PUBLIC "-//W3C//DTD SVG 20010904//EN"
 "http://www.w3.org/TR/2001/REC-SVG-20010904/DTD/svg10.dtd">
<svg version="1.0" xmlns="http://www.w3.org/2000/svg"
 width="360.000000pt" height="360.000000pt" viewBox="0 0 360.000000 360.000000"
 preserveAspectRatio="xMidYMid meet">

<g transform="translate(0.000000,360.000000) scale(0.100000,-0.100000)"
fill="#000000" stroke="none">
<path d="M1565 3589 c-41 -11 -109 -71 -128 -111 -8 -18 -25 -89 -37 -158 -12
-69 -25 -134 -29 -145 -5 -12 -29 -28 -62 -39 -30 -11 -80 -32 -111 -48 -32
-15 -62 -28 -67 -28 -5 0 -62 38 -128 85 -131 93 -177 111 -252 94 -69 -15
-89 -30 -233 -176 -139 -141 -160 -170 -172 -235 -11 -61 11 -116 96 -238 44
-63 83 -120 85 -127 3 -6 -11 -47 -30 -90 -19 -43 -40 -95 -47 -116 -7 -21
-17 -40 -24 -43 -6 -2 -73 -15 -149 -28 -160 -28 -200 -48 -244 -123 -28 -48
-28 -49 -31 -249 -4 -229 2 -267 54 -324 48 -53 86 -68 240 -94 74 -13 137
-26 141 -30 4 -4 22 -44 41 -89 18 -45 40 -98 49 -118 l15 -36 -75 -104 c-98
-137 -107 -156 -107 -226 1 -89 22 -123 181 -279 154 -152 181 -168 271 -166
57 1 94 20 222 111 55 39 104 71 109 71 5 0 43 -15 85 -34 43 -18 94 -39 115
-45 20 -7 37 -16 37 -20 0 -3 11 -68 24 -144 29 -163 53 -212 124 -254 l47
-28 225 0 c248 0 258 2 320 66 39 41 55 90 80 239 12 68 22 125 23 126 1 1 40
17 87 36 47 19 101 42 121 51 l36 16 118 -85 c220 -157 270 -148 501 87 146
150 165 180 164 260 -1 56 -23 101 -101 210 -41 57 -78 109 -82 116 -4 7 5 38
21 70 16 32 40 86 52 121 12 34 23 62 24 62 0 0 65 11 142 24 148 25 186 39
229 81 57 57 60 73 63 305 l3 215 -28 55 c-43 82 -88 106 -259 136 -76 13
-142 24 -145 24 -4 0 -15 23 -25 52 -9 28 -31 84 -49 123 l-33 71 75 104 c93
129 113 171 113 235 0 81 -26 118 -186 276 -154 152 -180 169 -260 169 -53 0
-95 -20 -217 -105 l-118 -83 -107 45 c-59 24 -117 48 -128 53 -18 7 -24 22
-34 82 -38 241 -57 284 -149 331 -54 27 -55 27 -255 26 -111 0 -215 -5 -231
-10z m401 -200 c4 -6 19 -85 34 -174 15 -89 33 -172 39 -183 15 -27 26 -33
138 -71 51 -16 133 -51 182 -76 50 -25 104 -45 120 -45 21 0 70 30 176 105
125 89 150 103 163 93 21 -17 203 -200 220 -220 11 -14 1 -33 -71 -135 -108
-151 -127 -183 -127 -210 0 -13 22 -67 49 -120 27 -54 61 -136 76 -183 41
-128 42 -128 252 -164 l178 -31 0 -175 0 -174 -177 -31 c-211 -37 -214 -39
-252 -158 -14 -45 -48 -129 -76 -187 -39 -79 -51 -113 -47 -135 3 -17 51 -95
106 -175 l102 -144 -124 -124 -124 -124 -142 102 c-83 59 -156 104 -175 107
-25 4 -54 -6 -131 -45 -55 -28 -139 -62 -187 -77 -125 -39 -126 -41 -163 -253
l-30 -177 -175 0 -175 0 -11 65 c-6 36 -20 114 -30 174 -23 139 -35 154 -146
189 -46 15 -125 47 -176 72 -136 66 -139 65 -307 -55 -77 -55 -145 -100 -152
-100 -14 0 -243 226 -243 239 0 5 41 66 91 137 135 189 132 172 64 313 -30 65
-68 155 -83 201 -22 69 -32 87 -57 102 -16 9 -102 29 -190 44 -88 15 -166 32
-173 37 -17 14 -17 336 1 342 6 3 88 18 181 34 142 25 172 33 191 53 12 13 37
68 54 122 18 55 53 140 77 189 35 69 44 95 39 118 -4 16 -51 92 -106 169 -54
76 -99 143 -99 147 0 10 232 243 243 243 4 0 71 -45 148 -100 168 -119 174
-120 293 -58 45 23 128 58 185 77 74 26 109 43 123 61 13 17 27 76 44 180 14
85 29 165 34 178 9 22 13 22 174 22 111 0 167 -4 172 -11z"/>
<path d="M1694 2570 c-313 -43 -576 -285 -650 -598 -21 -87 -21 -256 0 -344
69 -291 293 -515 584 -584 88 -21 257 -21 344 0 322 76 558 340 599 667 19
154 -21 346 -98 478 -70 119 -209 249 -330 310 -114 57 -316 89 -449 71z m250
-216 c197 -51 359 -214 411 -414 22 -85 17 -241 -11 -321 -59 -168 -192 -301
-360 -360 -74 -27 -212 -36 -296 -20 -211 41 -404 230 -447 439 -61 297 114
588 404 673 77 23 218 24 299 3z"/>
</g>
</svg>
