<?xml version="1.0" standalone="no"?>
<!DOCTYPE svg PUBLIC "-//W3C//DTD SVG 20010904//EN"
 "http://www.w3.org/TR/2001/REC-SVG-20010904/DTD/svg10.dtd">
<svg version="1.0" xmlns="http://www.w3.org/2000/svg"
 width="512.000000pt" height="512.000000pt" viewBox="0 0 512.000000 512.000000"
 preserveAspectRatio="xMidYMid meet">

<g transform="translate(0.000000,512.000000) scale(0.100000,-0.100000)"
fill="#000000" stroke="none">
<path d="M3935 5040 c-153 -25 -447 -121 -594 -194 -138 -70 -274 -201 -349
-336 -16 -30 -89 -217 -162 -415 -72 -198 -143 -387 -158 -420 -96 -221 -343
-595 -509 -772 -32 -34 -483 -440 -1003 -903 -520 -463 -969 -867 -998 -898
-132 -144 -188 -351 -147 -547 47 -221 233 -412 460 -470 181 -46 410 10 548
134 28 25 424 458 880 961 457 503 866 953 911 998 246 253 526 412 856 485
63 14 195 38 292 52 226 33 297 54 348 105 43 43 65 104 57 160 -4 36 -4 36
72 75 116 61 268 166 349 240 194 180 321 438 326 662 1 66 -1 74 -28 102 -55
57 -61 56 -444 -80 -363 -129 -396 -146 -390 -195 3 -24 -3 -28 -62 -50 -35
-12 -66 -21 -69 -19 -2 3 -31 76 -63 162 -104 279 -112 319 -83 391 35 82 59
95 335 190 230 78 358 125 407 149 41 19 63 59 63 114 0 36 -6 48 -40 80 -96
91 -267 183 -407 219 -91 24 -305 34 -398 20z m361 -170 c91 -23 179 -63 253
-112 l51 -35 -57 -22 c-32 -13 -156 -56 -277 -97 -120 -41 -237 -84 -259 -95
-61 -32 -134 -105 -164 -168 -25 -50 -28 -67 -27 -151 l0 -95 181 -505 c99
-278 190 -535 202 -572 37 -110 28 -115 -234 -149 -408 -51 -678 -141 -936
-312 -192 -127 -245 -181 -1161 -1190 -485 -535 -903 -993 -931 -1019 -266
-256 -719 -99 -778 270 -25 153 29 298 153 418 40 38 489 441 999 895 509 455
951 855 983 890 84 93 214 268 312 421 139 218 209 368 354 763 72 198 146
389 163 425 44 90 176 222 275 274 75 39 303 123 427 157 155 43 325 46 471 9z"/>
<path d="M3495 3990 c-66 -14 -283 -96 -324 -123 -50 -33 -91 -113 -91 -178 0
-30 14 -85 41 -155 23 -60 67 -186 99 -280 32 -94 65 -185 74 -202 34 -66 127
-122 202 -122 16 0 67 14 114 31 47 17 112 40 145 52 105 36 164 90 185 167
15 54 12 84 -16 163 -14 39 -59 168 -100 284 -40 117 -83 231 -94 253 -24 46
-86 96 -133 105 -18 4 -39 8 -47 10 -8 1 -33 -1 -55 -5z"/>
<path d="M2062 2428 c-45 -25 -1214 -1067 -1239 -1104 -12 -19 -13 -30 -3 -56
11 -32 10 -34 -41 -80 -52 -45 -54 -46 -81 -32 -17 9 -38 12 -51 8 -24 -8
-141 -108 -237 -204 -93 -93 -115 -142 -115 -255 0 -76 4 -98 26 -145 35 -74
98 -136 175 -172 60 -28 72 -30 152 -26 163 8 107 -44 959 894 411 453 756
840 767 860 25 47 31 114 16 169 -16 56 -72 122 -124 146 -59 27 -152 25 -204
-3z"/>
</g>
</svg>
