<?xml version="1.0" standalone="no"?>
<!DOCTYPE svg PUBLIC "-//W3C//DTD SVG 20010904//EN"
 "http://www.w3.org/TR/2001/REC-SVG-20010904/DTD/svg10.dtd">
<svg version="1.0" xmlns="http://www.w3.org/2000/svg"
 width="1600.000000pt" height="1700.000000pt" viewBox="0 0 1600.000000 1700.000000"
 preserveAspectRatio="xMidYMid meet">

<g transform="translate(0.000000,1700.000000) scale(0.100000,-0.100000)"
fill="#000000" stroke="none">
<path d="M5102 13785 c-293 -64 -502 -325 -502 -628 l0 -59 27 17 c25 17 26
17 20 -1 -7 -18 -6 -18 7 -1 16 21 26 22 26 3 0 -8 -12 -21 -27 -28 -25 -12
-45 -40 -26 -37 20 3 34 -2 28 -11 -3 -5 -2 -10 4 -10 5 0 12 4 15 9 12 19 47
18 71 -1 34 -27 34 -70 -1 -97 -33 -26 -50 -27 -57 -1 -4 15 0 20 14 20 10 0
23 9 29 20 14 26 -6 35 -55 26 -27 -5 -40 -3 -53 10 -16 17 -17 17 -20 -5 -2
-12 2 -29 8 -36 7 -8 10 -21 7 -29 -4 -10 -1 -13 9 -9 23 8 18 -69 -6 -100
-18 -23 -20 -40 -20 -192 0 -155 1 -167 18 -161 9 3 57 19 105 36 49 17 135
39 193 48 l104 16 0 276 0 276 -41 44 c-54 60 -79 100 -79 128 0 41 30 90 65
106 37 18 80 21 70 6 -3 -5 0 -7 8 -4 8 3 27 -6 43 -19 24 -21 27 -27 15 -41
-12 -15 -16 -14 -37 9 -31 34 -76 33 -103 -1 -25 -31 -26 -56 -7 -92 8 -15 19
-38 25 -52 10 -25 10 -24 4 3 -5 25 -3 28 13 25 15 -3 18 -11 16 -43 -2 -22
-1 -38 2 -35 3 3 6 22 8 43 1 20 5 37 8 37 3 0 18 20 34 45 16 26 41 51 58 58
l30 12 -24 26 c-12 15 -52 61 -87 104 -51 60 -61 79 -50 86 20 13 21 12 59
-36 40 -52 65 -67 57 -34 -6 23 23 59 48 59 24 0 186 -96 177 -105 -4 -5 2 -5
13 -1 19 7 19 6 3 -10 -14 -15 -22 -16 -42 -6 -18 8 -24 17 -20 29 4 13 3 15
-4 5 -7 -11 -20 -8 -64 17 -60 34 -85 33 -94 -4 -6 -26 -1 -38 38 -84 l27 -31
2531 0 c2471 0 2532 0 2568 -19 48 -25 87 -66 106 -113 14 -33 16 -235 16
-1860 0 -1753 -1 -1825 -19 -1863 -10 -22 -31 -52 -47 -67 -64 -60 -32 -58
-1019 -58 l-901 0 -15 -47 c-12 -38 -22 -51 -56 -69 l-41 -21 31 -32 c29 -28
30 -32 16 -47 -15 -14 -19 -12 -53 27 -27 32 -33 45 -24 52 9 6 8 7 -4 4 -9
-3 -24 3 -34 14 -16 17 -16 22 -4 31 12 8 12 9 -3 4 -20 -6 -42 36 -34 66 5
17 -40 18 -968 18 l-973 0 5 -197 c2 -109 6 -204 8 -210 5 -17 1620 -19 1630
-3 3 6 2 10 -2 10 -14 0 -45 60 -39 76 4 9 2 12 -5 8 -12 -7 -2 37 11 46 3 3
9 12 12 21 4 9 22 24 42 33 43 20 44 25 11 50 -14 11 -24 25 -21 33 7 17 -3
43 -17 43 -7 0 -7 -4 1 -12 17 -17 15 -33 -3 -18 -20 17 -19 27 6 41 15 8 19
8 15 0 -4 -6 -3 -11 1 -11 5 0 33 -29 63 -65 30 -35 58 -65 62 -65 4 0 5 13 2
29 -7 31 22 105 37 95 5 -3 9 1 9 9 0 17 21 27 56 27 22 0 24 -4 24 -43 0 -23
-4 -56 -8 -72 -11 -36 -6 -55 14 -55 9 0 12 -5 8 -12 -4 -7 -3 -8 5 -4 6 4 9
11 7 15 -3 4 5 20 18 36 27 34 51 27 34 -10 -6 -13 -15 -22 -19 -19 -5 3 -9
-1 -9 -9 0 -32 -79 -45 -133 -22 -17 7 -18 4 -11 -29 7 -40 -6 -78 -38 -107
-10 -9 -15 -19 -11 -23 11 -10 2180 -7 2255 4 207 30 380 152 475 336 78 152
73 3 73 2066 0 2038 3 1918 -65 2053 -64 127 -166 229 -290 289 -143 70 21 66
-2474 66 l-2250 0 -37 -25 c-21 -14 -51 -25 -70 -25 -20 0 -44 9 -62 25 -21
18 -42 25 -70 25 -36 0 -39 -2 -39 -27 0 -16 2 -22 4 -15 3 9 18 -1 42 -26 29
-30 44 -39 64 -37 15 2 27 0 27 -4 0 -15 -25 -31 -50 -31 -29 0 -66 32 -56 49
4 5 1 13 -5 17 -8 4 -9 3 -5 -4 4 -7 3 -12 -2 -12 -13 0 -47 52 -44 65 2 6 -2
4 -9 -2 -19 -19 -29 -16 -29 7 0 19 -6 20 -122 19 -68 0 -151 -7 -186 -14z
m327 -81 c33 -24 73 -129 41 -109 -6 3 -10 -5 -10 -19 0 -58 -101 -87 -151
-43 -32 27 -55 96 -37 112 8 7 9 6 3 -4 -5 -9 -4 -12 3 -8 5 4 8 17 4 29 -3
14 -2 19 6 14 7 -4 12 -2 12 5 0 36 87 52 129 23z m-619 -429 c10 -1 16 3 13
8 -3 5 0 8 8 5 23 -8 16 -33 -9 -32 -22 1 -22 0 -4 -20 10 -12 28 -32 40 -45
12 -14 22 -28 22 -32 0 -14 39 -20 59 -10 30 17 39 -8 11 -31 -34 -28 -50 -22
-105 35 -27 30 -58 57 -67 60 -10 4 -18 11 -18 16 0 6 8 7 18 4 9 -4 4 4 -11
18 -20 17 -26 29 -21 42 6 17 7 17 26 1 10 -10 27 -18 38 -19z m-137 -30 c4
-8 2 -17 -4 -21 -14 -8 -39 3 -39 17 0 8 4 8 15 -1 13 -11 14 -10 9 4 -3 9 -2
16 4 16 5 0 12 -7 15 -15z m129 -152 c43 -55 48 -65 35 -77 -13 -13 -19 -9
-53 31 -22 25 -45 56 -53 67 -8 12 -19 24 -24 27 -5 4 -7 12 -3 18 5 7 1 9
-11 5 -15 -6 -15 -4 2 9 24 19 33 13 107 -80z"/>
<path d="M5368 13703 c7 -3 16 -2 19 1 4 3 -2 6 -13 5 -11 0 -14 -3 -6 -6z"/>
<path d="M5352 13683 c-58 -11 -66 -100 -12 -128 49 -25 100 8 100 65 0 21
-42 71 -57 69 -4 -1 -18 -4 -31 -6z"/>
<path d="M5440 13661 c0 -6 4 -13 10 -16 6 -3 7 1 4 9 -7 18 -14 21 -14 7z"/>
<path d="M4740 13126 c0 -2 8 -10 18 -17 15 -13 16 -12 3 4 -13 16 -21 21 -21
13z"/>
<path d="M4796 13063 c-6 -14 -5 -15 5 -6 7 7 10 15 7 18 -3 3 -9 -2 -12 -12z"/>
<path d="M5614 13793 c3 -4 25 -8 48 -9 27 -1 36 1 27 7 -16 10 -86 12 -75 2z"/>
<path d="M5648 13763 c6 -2 18 -2 25 0 6 3 1 5 -13 5 -14 0 -19 -2 -12 -5z"/>
<path d="M5070 13381 c0 -5 5 -13 10 -16 6 -3 10 -2 10 4 0 5 -4 13 -10 16 -5
3 -10 2 -10 -4z"/>
<path d="M8408 12273 c-9 -2 -90 -86 -180 -186 -89 -100 -201 -225 -249 -277
-86 -95 -288 -318 -513 -568 -81 -90 -125 -132 -140 -132 -11 0 -41 -11 -66
-24 -50 -25 -77 -58 -223 -271 -148 -215 -298 -436 -321 -472 -12 -18 -25 -32
-31 -33 -22 -1 -568 186 -646 221 -82 37 -190 68 -364 105 -181 37 -240 55
-269 82 -44 42 -76 118 -76 183 l0 56 65 38 c72 43 170 137 213 205 117 187
136 421 50 623 -80 189 -261 337 -464 383 -98 21 -250 15 -344 -15 -193 -60
-362 -230 -427 -426 -37 -112 -39 -284 -5 -395 46 -147 138 -272 264 -356 40
-27 76 -53 80 -59 13 -17 9 -90 -7 -134 -17 -48 -56 -103 -90 -125 -13 -9
-114 -34 -224 -56 -324 -66 -447 -118 -481 -202 -12 -29 -149 -295 -325 -633
-254 -487 -356 -691 -364 -727 -43 -190 174 -333 337 -224 40 27 56 49 115
161 86 166 225 432 362 699 l108 209 17 -34 c16 -31 16 -48 4 -204 -27 -357
-32 -687 -31 -1850 2 -1379 -6 -1263 97 -1365 63 -64 127 -90 219 -90 87 0
148 23 209 77 51 48 62 69 42 89 -6 6 -8 18 -4 28 6 16 8 16 24 1 20 -18 25
-14 34 30 3 17 53 408 111 870 57 462 107 854 110 872 5 29 9 31 53 35 26 3
48 4 49 3 1 0 55 -311 118 -690 68 -400 121 -693 128 -697 12 -7 34 -12 50 -9
4 0 7 -6 7 -15 0 -8 5 -12 10 -9 6 4 19 -13 29 -36 15 -34 17 -47 8 -68 -15
-35 -47 -71 -64 -71 -11 0 -13 -10 -8 -47 29 -208 83 -294 215 -344 163 -62
353 41 389 212 11 49 -1 283 -75 1494 -21 348 -25 478 -21 680 6 255 -4 595
-27 899 l-13 170 45 103 c25 57 50 103 56 103 6 0 148 -46 316 -101 267 -89
316 -102 391 -106 95 -6 157 9 235 53 78 45 98 70 309 379 38 55 93 136 124
180 247 358 252 368 232 470 l-13 65 103 113 c57 62 160 176 229 252 69 77
172 192 230 256 389 429 437 484 444 513 17 68 -45 147 -112 145 -20 -1 -45
-3 -54 -6z m-3189 -1797 c42 -40 47 -79 22 -164 -23 -76 -49 -105 -101 -117
-17 -4 -30 -13 -30 -21 0 -12 100 -691 114 -779 35 -205 37 -235 25 -272 -12
-39 -138 -196 -170 -213 -10 -6 -33 -10 -51 -10 -28 0 -43 11 -105 76 -74 79
-113 142 -113 184 0 24 75 529 125 850 29 181 30 190 11 190 -35 0 -73 49 -90
114 -20 82 -20 110 1 143 29 45 65 53 205 51 125 -3 127 -3 157 -32z m546
-3162 l-7 -47 50 7 c45 6 52 4 66 -16 20 -28 21 -65 2 -84 -11 -11 -16 -11
-19 -1 -3 7 -6 4 -6 -6 -1 -13 -7 -17 -23 -15 -31 4 -37 38 -7 38 20 0 48 24
49 42 0 4 -25 5 -55 3 -46 -3 -60 0 -75 15 -26 26 -25 59 3 87 12 12 24 22 26
22 2 1 0 -20 -4 -45z m39 15 c-10 -16 -24 -9 -24 12 0 18 2 19 15 9 8 -7 12
-16 9 -21z m-67 -136 c16 -19 23 -41 23 -69 0 -35 -6 -47 -35 -73 -42 -37 -84
-40 -125 -11 -59 42 -61 124 -2 171 39 30 108 22 139 -18z m-273 -97 c14 -5
17 -2 12 9 -6 17 9 21 20 4 3 -6 1 -16 -5 -22 -16 -16 -14 -30 10 -55 11 -12
17 -27 13 -34 -4 -6 -3 -8 3 -5 6 4 16 0 23 -8 15 -18 46 -20 56 -4 4 8 9 7
15 -2 13 -21 11 -29 -8 -22 -11 4 -14 3 -9 -5 10 -17 -41 -27 -59 -12 -8 7
-12 16 -9 21 3 5 1 8 -4 7 -5 -2 -21 12 -37 30 -16 19 -39 38 -52 43 -14 5
-23 15 -20 22 2 6 -2 20 -10 29 -13 14 -13 19 -1 32 11 13 15 13 28 -3 8 -10
23 -21 34 -25z m-799 -576 c-3 -5 -1 -10 6 -10 10 0 10 -3 2 -11 -9 -9 -16 -8
-27 3 -16 17 -11 28 11 28 8 0 11 -4 8 -10z"/>
<path d="M5625 7191 c-11 -5 -23 -7 -26 -5 -11 6 -9 -95 2 -102 8 -4 7 -9 -2
-15 -13 -8 33 -14 71 -9 23 3 47 32 53 65 7 37 1 46 -36 63 -32 14 -34 14 -62
3z"/>
<path d="M5430 7066 c0 -2 7 -6 15 -10 8 -3 15 -1 15 4 0 6 -7 10 -15 10 -8 0
-15 -2 -15 -4z"/>
<path d="M8222 9375 c0 -16 2 -22 5 -12 2 9 2 23 0 30 -3 6 -5 -1 -5 -18z"/>
<path d="M8240 9375 c0 -37 44 -78 73 -69 12 5 36 8 52 7 17 0 22 2 13 4 -16
4 -16 7 -3 27 28 42 11 56 -66 56 -67 0 -69 -1 -69 -25z"/>
<path d="M8097 9286 c-19 -17 -21 -28 -16 -60 8 -50 49 -80 49 -35 0 11 5 30
11 41 9 16 8 19 -2 13 -12 -8 -10 8 5 46 10 23 -20 20 -47 -5z"/>
<path d="M8300 9245 c0 -5 5 -17 10 -25 5 -8 10 -10 10 -5 0 6 -5 17 -10 25
-5 8 -10 11 -10 5z"/>
<path d="M8061 9204 c0 -11 3 -14 6 -6 3 7 2 16 -1 19 -3 4 -6 -2 -5 -13z"/>
<path d="M7933 9150 c-13 -5 -23 -15 -23 -22 0 -9 -3 -8 -10 2 -13 21 -5 -62
9 -89 21 -39 88 -38 116 2 19 27 19 74 1 93 -19 19 -65 26 -93 14z"/>
<path d="M5370 6972 c0 -32 24 -152 30 -152 4 0 13 7 20 15 11 13 15 13 22 3
5 -8 6 3 3 27 -11 75 -15 84 -38 91 -12 4 -25 12 -29 18 -5 8 -8 7 -8 -2z"/>
<path d="M6866 6734 c-248 -60 -436 -287 -453 -544 -14 -226 103 -447 297
-560 108 -63 157 -75 305 -75 112 0 139 3 195 24 350 128 503 514 337 850 -48
99 -162 209 -269 260 -46 21 -107 44 -136 50 -72 15 -204 12 -276 -5z"/>
<path d="M9240 6701 c-240 -33 -443 -214 -505 -452 -26 -97 -17 -261 19 -354
119 -310 459 -470 765 -360 86 31 109 44 183 105 139 114 217 279 218 462 0
102 -14 166 -60 265 -105 225 -368 367 -620 334z"/>
<path d="M11725 6699 c-240 -35 -439 -212 -500 -446 -31 -120 -13 -308 39
-411 132 -261 415 -393 690 -322 113 29 190 73 277 160 84 83 136 175 165 288
19 78 16 99 -18 120 -32 19 -47 9 -30 -18 7 -11 12 -27 12 -36 0 -28 -39 -82
-70 -96 -37 -16 -37 -24 -3 -60 23 -24 25 -30 13 -38 -22 -14 -24 -13 -61 32
-19 22 -44 51 -55 63 -35 35 -45 62 -38 102 7 44 38 88 55 77 7 -4 9 -3 6 3
-4 6 2 13 13 16 13 3 18 1 13 -6 -4 -7 1 -6 10 2 14 11 23 11 47 1 16 -7 28
-16 25 -20 -3 -5 4 -6 15 -3 11 3 23 10 27 16 4 6 1 7 -7 2 -19 -12 -29 14
-24 63 5 54 20 75 47 66 14 -4 17 -3 12 7 -5 7 -9 24 -10 39 -4 41 -60 141
-116 203 -54 61 -158 134 -229 161 -52 21 -180 47 -218 45 -15 -1 -54 -5 -87
-10z m379 -744 c-1 -22 -5 -59 -7 -83 -2 -23 -1 -45 4 -48 15 -9 49 16 55 42
8 31 30 25 26 -7 -6 -54 -90 -98 -119 -62 -8 10 -12 12 -8 6 4 -8 0 -13 -10
-13 -9 0 -14 4 -10 9 3 5 1 12 -5 16 -5 3 -10 0 -11 -7 0 -7 -4 -4 -9 7 -8 18
-9 18 -9 2 -1 -10 4 -28 10 -39 8 -15 8 -31 -1 -62 -18 -65 -79 -98 -146 -80
-22 6 -74 78 -74 104 0 26 50 91 81 104 l28 12 -39 48 c-33 40 -38 51 -28 63
10 13 17 10 43 -19 62 -70 100 -121 107 -147 4 -14 5 4 2 41 -5 80 6 108 54
136 55 31 70 26 66 -23z"/>
<path d="M12053 5963 c3 -5 -2 -16 -11 -25 -9 -8 -25 -25 -36 -38 -15 -19 -16
-22 -2 -17 12 5 16 1 16 -16 0 -12 9 -28 20 -35 13 -8 20 -8 20 -1 0 5 4 8 9
5 5 -4 7 4 4 16 -4 19 -3 20 6 8 7 -9 11 -10 11 -3 0 6 -4 15 -10 18 -5 3 -10
24 -10 45 0 21 -5 42 -12 46 -6 4 -8 3 -5 -3z"/>
<path d="M11860 5925 c13 -14 26 -25 28 -25 3 0 -5 11 -18 25 -13 14 -26 25
-28 25 -3 0 5 -11 18 -25z"/>
<path d="M11910 5850 c0 -5 5 -10 11 -10 5 0 7 5 4 10 -3 6 -8 10 -11 10 -2 0
-4 -4 -4 -10z"/>
<path d="M11870 5830 c-13 -8 -12 -10 3 -10 9 0 17 5 17 10 0 12 -1 12 -20 0z"/>
<path d="M11885 5804 c-22 -7 -41 -14 -42 -14 -2 0 -3 -9 -3 -21 0 -11 -4 -18
-9 -15 -5 3 -8 -5 -7 -18 0 -13 4 -22 9 -19 4 2 7 1 7 -4 0 -18 18 -34 48 -42
63 -18 98 42 75 127 -4 18 -8 20 -14 10 -7 -9 -11 -10 -17 -1 -5 8 -17 8 -47
-3z"/>
<path d="M11981 5734 c0 -11 3 -14 6 -6 3 7 2 16 -1 19 -3 4 -6 -2 -5 -13z"/>
<path d="M12373 6224 c-3 -8 -12 -13 -19 -10 -8 3 -14 1 -14 -4 0 -6 5 -10 10
-10 6 0 10 -12 10 -27 1 -30 17 -56 38 -60 8 -2 12 9 12 31 0 75 -21 121 -37
80z"/>
<path d="M12196 6077 c-26 -26 -26 -68 1 -98 15 -17 73 -31 73 -18 0 4 9 11
20 14 11 3 20 13 20 21 0 8 4 13 9 10 10 -7 21 17 20 42 -1 10 -4 7 -9 -8 l-8
-25 -1 27 c-2 55 -82 77 -125 35z"/>
<path d="M12270 5850 c0 -5 5 -10 10 -10 6 0 10 5 10 10 0 6 -4 10 -10 10 -5
0 -10 -4 -10 -10z"/>
<path d="M6264 5359 c-102 -39 -174 -143 -174 -251 0 -74 116 -661 140 -707
25 -49 86 -106 140 -130 44 -20 64 -21 636 -21 660 0 646 -1 726 70 24 21 53
60 66 86 23 52 142 640 142 704 0 89 -69 197 -154 243 l-41 22 -715 2 c-692 2
-717 2 -766 -18z"/>
<path d="M8623 5330 c-61 -13 -115 -43 -157 -90 -44 -48 -61 -86 -71 -150 -8
-59 105 -651 139 -725 27 -59 74 -108 130 -138 41 -22 48 -22 630 -25 669 -3
662 -4 743 71 24 22 54 59 65 80 22 44 138 613 141 692 4 114 -61 219 -165
266 l-53 24 -680 2 c-374 0 -699 -3 -722 -7z"/>
<path d="M11130 5333 c-14 -2 -46 -11 -72 -19 -89 -29 -178 -156 -178 -255 0
-15 22 -139 49 -276 27 -138 55 -279 61 -314 23 -127 92 -215 195 -251 45 -16
106 -17 626 -18 646 0 630 -2 714 72 25 22 55 58 65 79 26 49 142 624 143 705
1 109 -65 208 -172 258 -45 21 -57 21 -726 22 -374 1 -691 0 -705 -3z"/>
<path d="M0 500 l0 -500 8000 0 8000 0 0 500 0 500 -8000 0 -8000 0 0 -500z
m776 263 c35 -12 68 -35 117 -84 l67 -68 0 -125 c0 -138 -9 -173 -49 -183 -14
-3 -52 -21 -83 -40 -107 -66 -238 -55 -331 27 -129 114 -121 329 17 431 27 20
63 41 80 47 49 16 128 14 182 -5z m464 -160 c1 -92 2 -96 16 -71 17 32 62 58
100 58 26 0 94 -35 94 -48 0 -4 -26 -33 -57 -65 -56 -57 -57 -59 -28 -55 17 3
38 9 48 13 14 6 17 2 17 -22 0 -69 -129 -72 -168 -3 -20 35 -28 37 -37 9 -9
-26 -62 -59 -98 -59 -99 0 -154 119 -88 192 27 30 35 33 85 33 l56 0 0 58 c0
57 0 57 30 57 l30 0 0 -97z m885 67 c0 -18 -6 -26 -23 -28 -13 -2 -25 3 -28
12 -10 26 4 48 28 44 17 -2 23 -10 23 -28z m475 -29 l0 -59 39 5 c33 5 41 2
55 -19 13 -20 76 -190 76 -206 0 -2 -14 -2 -32 0 -30 3 -33 7 -56 81 -25 80
-41 99 -67 77 -11 -9 -15 -33 -15 -86 l0 -74 -30 0 c-29 0 -30 2 -31 43 0 33
-2 38 -9 21 -4 -12 -21 -31 -37 -44 -23 -18 -37 -21 -80 -18 l-53 5 0 -44 c0
-41 -1 -43 -30 -43 l-30 0 0 118 c0 129 7 150 60 177 59 30 148 5 170 -48 6
-15 9 7 9 76 l1 97 30 0 c30 0 30 0 30 -59z m-370 -16 c0 -31 3 -35 25 -35 21
0 25 -5 25 -30 0 -25 -4 -30 -25 -30 -24 0 -25 -3 -25 -55 0 -52 1 -55 25 -55
21 0 25 -5 25 -30 0 -28 -3 -30 -35 -30 -56 0 -75 27 -75 105 0 37 -4 65 -10
65 -5 0 -10 14 -10 30 0 17 5 30 10 30 6 0 10 11 10 23 0 15 9 28 23 35 34 16
37 15 37 -23z m830 0 c0 -31 3 -35 25 -35 21 0 25 -5 25 -30 0 -25 -4 -30 -25
-30 -24 0 -25 -3 -25 -55 0 -52 1 -55 25 -55 21 0 25 -5 25 -30 0 -28 -3 -30
-35 -30 -56 0 -75 27 -75 105 0 37 -4 65 -10 65 -5 0 -10 14 -10 30 0 17 5 30
10 30 6 0 10 11 10 23 0 15 9 28 23 35 34 16 37 15 37 -23z m-1414 -66 c13
-12 24 -28 24 -36 0 -20 17 -15 23 6 6 26 64 61 100 61 114 0 161 -151 65
-210 -18 -11 -46 -20 -63 -20 -37 0 -95 34 -102 60 -4 16 -10 13 -44 -22 -37
-39 -40 -40 -89 -36 l-50 5 0 -43 c0 -42 -1 -44 -30 -44 l-30 0 0 110 c0 123
11 159 58 185 38 21 107 14 138 -16z m395 12 c24 -19 24 -19 5 -40 -13 -15
-23 -18 -30 -11 -5 5 -16 10 -23 10 -22 0 -14 -18 14 -32 38 -18 54 -53 41
-89 -17 -51 -76 -65 -119 -30 -24 19 -24 19 -5 40 13 15 23 18 30 11 14 -14
36 -13 36 3 0 6 -14 18 -30 25 -33 15 -46 47 -36 87 11 44 77 58 117 26z m89
-96 l0 -115 -30 0 -30 0 0 115 0 115 30 0 30 0 0 -115z m817 82 c76 -76 6
-213 -99 -193 -55 10 -83 47 -83 111 0 55 18 88 60 106 34 15 96 3 122 -24z
m323 18 c107 -55 62 -215 -61 -215 -22 0 -41 10 -65 34 -92 92 11 241 126 181z
m191 -4 c24 -19 24 -19 5 -40 -13 -15 -23 -18 -30 -11 -5 5 -16 10 -23 10 -22
0 -15 -20 10 -29 60 -23 74 -75 32 -116 -29 -30 -74 -33 -106 -6 -24 19 -24
19 -5 40 13 15 23 18 30 11 13 -13 46 -13 46 0 0 5 -15 17 -32 26 -40 20 -48
31 -48 67 0 58 72 88 121 48z m7699 -62 c0 -39 -4 -69 -10 -69 -6 0 -10 32
-10 76 0 47 4 73 10 69 6 -3 10 -37 10 -76z m610 0 c0 -39 -4 -69 -10 -69 -6
0 -10 32 -10 76 0 47 4 73 10 69 6 -3 10 -37 10 -76z m368 41 c3 -15 -7 -34
-29 -56 l-33 -34 32 0 c18 0 32 -4 32 -10 0 -5 -22 -10 -50 -10 -27 0 -50 3
-50 6 0 3 18 23 40 45 22 22 40 46 40 55 0 23 -31 30 -46 9 -16 -21 -28 -16
-18 8 13 34 77 24 82 -13z m340 -34 c2 -27 -2 -54 -9 -62 -15 -19 -65 -18 -73
1 -6 18 5 20 22 3 8 -8 15 -8 27 2 23 19 18 36 -11 35 -33 0 -49 23 -40 58 7
30 33 39 61 22 15 -9 21 -25 23 -59z m1532 -1 l0 -75 -33 0 c-41 0 -57 15 -57
55 0 37 16 55 47 55 16 0 23 6 23 20 0 11 5 20 10 20 6 0 10 -32 10 -75z m490
65 c0 -5 -4 -10 -10 -10 -5 0 -10 5 -10 10 0 6 5 10 10 10 6 0 10 -4 10 -10z
m64 -33 c8 -6 8 -10 -1 -14 -15 -6 -18 -73 -3 -73 6 0 10 -5 10 -11 0 -6 -8
-9 -17 -7 -13 2 -20 17 -24 53 -6 53 10 120 19 80 2 -11 9 -24 16 -28z m156
20 c0 -18 5 -23 28 -22 26 0 27 -3 30 -52 2 -32 -1 -53 -7 -53 -6 0 -11 20
-11 46 0 38 -3 45 -17 42 -13 -2 -19 -15 -21 -46 -5 -71 -22 -46 -22 33 0 43
4 75 10 75 6 0 10 -10 10 -23z m234 -20 c8 -6 8 -10 -1 -14 -15 -6 -18 -73 -3
-73 6 0 10 -5 10 -11 0 -6 -8 -9 -17 -7 -13 2 -20 17 -24 53 -6 53 10 120 19
80 2 -11 9 -24 16 -28z m-3044 14 c15 -29 12 -87 -6 -105 -16 -16 -93 -23 -95
-8 0 4 -2 35 -4 70 l-4 62 49 0 c39 0 52 -4 60 -19z m339 5 c9 -11 10 -20 1
-35 -7 -14 -7 -21 0 -21 14 0 13 -43 -2 -58 -17 -17 -53 -15 -68 3 -18 21 -5
31 15 12 8 -9 22 -14 30 -11 22 9 18 45 -5 51 -21 6 -21 6 -1 20 11 7 18 20
15 28 -8 19 -33 19 -40 0 -4 -8 -10 -12 -16 -9 -15 9 12 34 37 34 12 0 28 -6
34 -14z m109 2 c15 -15 16 -82 2 -109 -6 -10 -21 -19 -34 -19 -25 0 -51 22
-39 33 3 4 12 -1 18 -10 11 -15 15 -15 29 -4 23 19 20 29 -10 33 -34 4 -49 27
-40 61 5 21 12 27 34 27 15 0 33 -5 40 -12z m208 -58 c0 -38 -4 -70 -8 -70 -5
0 -8 23 -8 51 0 46 -2 51 -20 46 -11 -3 -20 -2 -20 3 0 8 40 38 51 39 3 1 6
-30 5 -69z m129 59 c11 -17 -2 -21 -24 -7 -18 11 -23 11 -31 -2 -15 -23 -12
-30 13 -30 29 0 47 -18 47 -45 0 -42 -54 -62 -80 -30 -16 19 -15 92 1 111 13
16 65 19 74 3z m88 -56 c-5 -82 -13 -96 -13 -24 0 48 -2 53 -20 48 -11 -3 -20
-2 -20 3 0 7 40 38 51 39 3 1 4 -29 2 -66z m125 55 c7 -7 12 -33 12 -58 0 -50
-13 -70 -45 -70 -32 0 -45 20 -45 70 0 50 13 70 45 70 12 0 26 -5 33 -12z
m113 -4 c10 -12 10 -20 1 -35 -7 -11 -8 -19 -2 -19 5 0 10 -13 10 -30 0 -24
-5 -31 -27 -36 -14 -4 -33 -2 -42 3 -19 12 -28 63 -11 63 8 0 8 6 0 21 -22 40
40 70 71 33z m-1695 -27 c9 -9 11 -97 2 -97 -4 0 -8 18 -8 40 0 28 -5 43 -16
47 -21 8 -34 -13 -34 -54 0 -18 -4 -33 -10 -33 -5 0 -10 21 -10 46 0 38 -3 45
-16 40 -9 -3 -18 -6 -20 -6 -2 0 -4 -18 -4 -40 0 -22 -4 -40 -10 -40 -5 0 -10
22 -10 49 0 44 3 50 23 53 32 5 107 2 113 -5z m102 1 c7 -7 12 -31 12 -54 l0
-42 -42 2 c-39 1 -43 3 -43 26 0 19 6 26 25 28 33 5 48 20 27 28 -10 3 -24 1
-32 -6 -9 -7 -19 -10 -23 -6 -9 10 26 36 48 36 9 0 21 -5 28 -12z m110 6 c19
-6 22 -13 22 -63 0 -31 -5 -62 -12 -69 -15 -15 -64 -16 -73 -1 -11 16 1 22 23
10 13 -7 22 -7 30 1 15 15 16 31 1 23 -5 -4 -21 -4 -35 -1 -20 5 -24 12 -24
44 0 55 18 69 68 56z m113 -4 c21 -12 26 -49 7 -51 -7 -1 -23 0 -35 1 -15 1
-23 -4 -23 -13 0 -20 20 -27 43 -15 21 11 32 5 22 -11 -9 -15 -58 -14 -73 1
-17 17 -15 64 4 82 18 19 28 20 55 6z m1809 -22 l12 -33 10 33 c11 39 30 37
39 -4 l6 -29 13 33 c6 17 16 32 21 32 11 0 12 3 -7 -59 -15 -53 -36 -64 -42
-23 -2 12 -7 22 -12 22 -5 0 -10 -10 -12 -22 -6 -41 -27 -30 -42 23 -19 62
-18 59 -7 59 5 0 14 -15 21 -32z m150 0 l12 -33 9 33 c5 17 14 32 19 32 5 0
14 -15 19 -32 l9 -33 12 33 c7 17 16 32 21 32 11 0 12 3 -7 -59 -15 -53 -36
-64 -42 -23 -2 12 -7 22 -12 22 -5 0 -10 -10 -12 -22 -6 -41 -27 -30 -42 23
-19 62 -18 59 -7 59 5 0 14 -15 21 -32z m150 0 l12 -33 9 33 c5 17 14 32 19
32 5 0 14 -15 19 -32 l9 -33 12 33 c7 17 16 32 21 32 11 0 12 3 -7 -59 -15
-53 -36 -64 -42 -23 -2 12 -7 22 -12 22 -5 0 -10 -10 -12 -22 -6 -41 -27 -30
-42 23 -19 62 -18 59 -7 59 5 0 14 -15 21 -32z m358 20 c7 -7 12 -20 12 -30 0
-14 -8 -18 -40 -18 -31 0 -38 -3 -34 -15 7 -18 35 -20 52 -3 17 17 28 2 12
-17 -28 -34 -90 -7 -90 40 0 45 58 73 88 43z m109 0 c15 -12 17 -56 4 -76 -5
-8 -20 -15 -35 -15 -17 -2 -26 -8 -26 -19 0 -10 -4 -18 -10 -18 -6 0 -10 29
-10 68 l0 69 32 1 c18 0 38 -4 45 -10z m124 -12 c14 -29 4 -75 -16 -83 -28
-10 -64 6 -71 33 -10 41 10 74 46 74 23 0 33 -6 41 -24z m100 8 c12 -15 10
-16 -19 -10 -40 9 -42 -6 -2 -21 19 -7 30 -18 30 -31 0 -33 -57 -45 -80 -17
-16 19 -5 34 12 17 15 -15 48 -16 48 -2 0 6 -13 13 -29 16 -17 4 -32 13 -36
21 -14 37 49 59 76 27z m49 -39 c0 -30 -4 -55 -10 -55 -5 0 -10 25 -10 55 0
30 5 55 10 55 6 0 10 -25 10 -55z m167 43 c18 -14 16 -73 -2 -88 -8 -7 -24
-10 -35 -7 -15 4 -20 0 -20 -14 0 -10 -4 -19 -10 -19 -6 0 -10 29 -10 68 l0
69 32 1 c18 0 38 -4 45 -10z m224 -12 c14 -29 4 -75 -16 -83 -28 -10 -64 6
-71 33 -10 41 10 74 46 74 23 0 33 -6 41 -24z m167 12 c7 -7 12 -26 12 -43 0
-38 -16 -55 -50 -55 -46 0 -65 44 -40 91 12 22 59 26 78 7z m103 -4 c12 -15
10 -16 -19 -10 -40 9 -42 -6 -2 -21 19 -7 30 -18 30 -31 0 -33 -57 -45 -80
-17 -16 19 -5 34 12 17 14 -14 48 -16 48 -3 0 5 -13 12 -29 16 -16 3 -32 13
-35 22 -15 37 48 59 75 27z m149 1 c17 -20 5 -32 -15 -15 -32 26 -59 -12 -35
-50 8 -13 13 -13 31 -2 25 16 37 8 19 -13 -15 -18 -51 -20 -68 -3 -7 7 -12 26
-12 43 0 17 5 36 12 43 17 17 53 15 68 -3z m124 -17 c14 -41 -6 -78 -42 -78
-35 0 -52 16 -52 51 0 60 75 81 94 27z m164 -25 c2 -32 -1 -53 -7 -53 -6 0
-11 20 -11 46 0 38 -3 45 -17 42 -13 -2 -19 -15 -21 -46 -4 -57 -22 -54 -22 4
0 38 -3 45 -17 42 -13 -2 -19 -15 -21 -46 -5 -61 -22 -51 -22 13 l0 55 68 -3
67 -2 3 -52z m-3628 37 c0 -5 -4 -10 -10 -10 -5 0 -10 5 -10 10 0 6 5 10 10
10 6 0 10 -4 10 -10z m0 -80 c0 -5 -4 -10 -10 -10 -5 0 -10 5 -10 10 0 6 5 10
10 10 6 0 10 -4 10 -10z m1930 0 c0 -5 -4 -10 -10 -10 -5 0 -10 5 -10 10 0 6
5 10 10 10 6 0 10 -4 10 -10z m1310 0 c0 -5 -4 -10 -10 -10 -5 0 -10 5 -10 10
0 6 5 10 10 10 6 0 10 -4 10 -10z"/>
<path d="M638 640 c-10 -15 -24 -20 -54 -20 -66 0 -74 -16 -74 -151 0 -76 4
-119 12 -127 8 -8 66 -12 194 -12 153 0 185 3 198 16 13 12 16 39 16 129 0
134 -6 145 -79 145 -35 0 -53 5 -66 20 -14 16 -31 20 -76 20 -48 0 -61 -4 -71
-20z m132 -65 c102 -53 60 -215 -55 -215 -69 0 -121 62 -112 132 11 82 92 122
167 83z m120 -10 c0 -8 -9 -15 -20 -15 -11 0 -20 7 -20 15 0 8 9 15 20 15 11
0 20 -7 20 -15z"/>
<path d="M671 556 c-26 -15 -50 -51 -51 -79 -1 -56 61 -105 118 -92 81 17 95
132 21 170 -34 18 -57 18 -88 1z m98 -32 c29 -37 27 -78 -5 -103 -15 -12 -38
-21 -51 -21 -32 0 -73 42 -73 76 0 68 88 100 129 48z"/>
<path d="M650 472 c0 -16 45 -62 61 -62 6 0 2 8 -10 18 -11 9 -27 26 -36 37
-8 12 -14 15 -15 7z"/>
<path d="M1082 518 c-24 -29 -18 -74 12 -93 38 -25 86 4 86 52 0 12 -7 29 -16
37 -19 19 -67 21 -82 4z"/>
<path d="M1318 518 c-8 -7 -18 -21 -21 -30 -11 -31 9 -28 43 7 30 31 31 35 14
35 -11 0 -27 -6 -36 -12z"/>
<path d="M2377 512 c-10 -10 -17 -28 -17 -40 0 -24 36 -62 60 -62 29 0 60 30
60 59 0 54 -68 82 -103 43z"/>
<path d="M1525 514 c-24 -25 -16 -75 16 -93 24 -13 29 -13 53 2 47 31 27 107
-29 107 -13 0 -31 -7 -40 -16z"/>
<path d="M1752 518 c-7 -7 -12 -26 -12 -43 0 -38 16 -55 51 -55 49 0 73 45 49
91 -12 22 -68 27 -88 7z"/>
<path d="M2824 504 c-16 -24 -16 -29 -3 -53 21 -37 72 -41 94 -7 14 21 15 29
3 53 -19 40 -70 44 -94 7z"/>
<path d="M3183 518 c-34 -44 -14 -98 37 -98 43 0 67 38 48 77 -15 31 -67 44
-85 21z"/>
<path d="M12417 564 c-12 -12 -8 -52 6 -57 22 -8 39 8 35 34 -3 23 -27 37 -41
23z"/>
<path d="M13945 520 c-12 -20 4 -62 23 -58 23 4 24 61 0 66 -9 2 -19 -2 -23
-8z"/>
<path d="M11827 563 c-2 -5 -3 -28 -3 -53 1 -39 4 -45 24 -48 33 -5 52 15 52
54 0 23 -6 37 -19 44 -23 12 -48 13 -54 3z"/>
<path d="M12313 563 c-17 -6 -17 -50 0 -56 22 -8 39 8 35 33 -3 25 -14 32 -35
23z"/>
<path d="M12643 513 c-18 -6 -16 -38 2 -53 19 -16 35 -5 35 25 0 24 -16 35
-37 28z"/>
<path d="M12857 563 c-12 -11 -8 -88 5 -101 19 -19 38 6 38 53 0 30 -5 45 -16
49 -19 7 -19 7 -27 -1z"/>
<path d="M12966 555 c-3 -9 1 -18 10 -22 19 -7 39 11 30 26 -10 16 -33 13 -40
-4z"/>
<path d="M12964 496 c-9 -24 4 -48 23 -44 12 2 18 12 18 28 0 29 -32 41 -41
16z"/>
<path d="M11383 483 c-17 -6 -17 -33 0 -33 14 0 37 20 37 32 0 9 -18 9 -37 1z"/>
<path d="M11492 514 c-15 -27 -3 -56 22 -52 16 2 21 10 21 33 0 34 -28 47 -43
19z"/>
<path d="M11607 524 c-14 -14 -6 -24 19 -24 16 0 24 5 22 13 -5 14 -31 21 -41
11z"/>
<path d="M14055 520 c-4 -6 7 -10 25 -10 18 0 29 4 25 10 -3 6 -15 10 -25 10
-10 0 -22 -4 -25 -10z"/>
<path d="M14175 519 c-10 -15 4 -61 17 -57 18 6 32 34 25 52 -7 18 -32 22 -42
5z"/>
<path d="M14285 511 c-8 -26 4 -51 25 -51 10 0 21 7 24 16 10 25 -3 54 -24 54
-10 0 -21 -8 -25 -19z"/>
<path d="M14614 516 c-10 -26 0 -51 21 -51 16 0 20 7 20 30 0 33 -30 49 -41
21z"/>
<path d="M14825 511 c-8 -26 4 -51 25 -51 10 0 21 7 24 16 10 25 -3 54 -24 54
-10 0 -21 -8 -25 -19z"/>
<path d="M14995 511 c-8 -26 4 -51 26 -51 20 0 36 40 24 59 -10 18 -43 12 -50
-8z"/>
<path d="M15365 511 c-8 -26 4 -51 26 -51 20 0 36 40 24 59 -10 18 -43 12 -50
-8z"/>
</g>
</svg>
